<svg width="263" height="46" viewBox="0 0 263 46" fill="none" xmlns="http://www.w3.org/2000/svg"><path fill-rule="evenodd" clip-rule="evenodd" d="M249.367 27.431l-13.633-13.715L249.367 0 263 13.716l-13.633 13.716zm-7.433-3.778l1.153 4.64c-.976 0-2.135.357-3.614 1.07a18.407 18.407 0 00-4.012 2.72v13.203h-5.764V23.653h3.015l1.906 3.613c1.035-.921 2.246-1.753 3.636-2.497 1.389-.744 2.616-1.116 3.68-1.116zm-12.49-8.068v3.672h-1.035v-5.489h1.035l2.528 3.665v-3.665h1.043v5.49h-1.043l-2.528-3.673zm-6.659-1.817h3.257l.161.824h-2.383v1.477h1.781l.169.838h-1.95v1.535h2.629l.155.815h-3.819v-5.489zm3.366 20.635v1.784h-14.498c.295 1.517.938 2.677 1.937 3.48.982.802 2.497 1.22 4.536 1.22 1.182 0 2.246-.171 3.192-.507.945-.327 1.965-.803 3.059-1.428l1.724 4.23c-1.133.836-2.315 1.488-3.586 1.948-1.271.46-2.779.691-4.499.691-4.102 0-7.198-1.003-9.311-3.01-2.096-2.007-3.17-4.78-3.17-8.319 0-2.29.435-4.297 1.307-6.021.873-1.724 2.121-3.055 3.747-3.954 1.626-.975 3.547-1.444 5.763-1.444 2.158 0 3.976.506 5.453 1.517 1.478 1.012 2.572 2.372 3.281 4.082.71 1.71 1.065 3.62 1.065 5.731zm-6.997-5.307c-.762-.714-1.73-1.071-2.902-1.071-1.172 0-2.205.364-3.003 1.093-.798.728-1.315 1.79-1.552 3.189h9.001c-.296-1.428-.782-2.498-1.544-3.211zm-2.266-13.511v3.672h-1.035v-5.489h1.035l2.527 3.665v-3.665h1.043v5.49h-1.043l-2.527-3.673zm-4.293 2.38h-2.07l-.481 1.292h-1.043l2.126-5.489h.883l2.118 5.425-1.043.178-.49-1.405zm-1.051-2.76l-.714 1.934h1.445l-.731-1.934zm-7.269-1.437h1.035v4.674h2.407l.161.815h-3.603v-5.489zm-2.968 3.379a2.91 2.91 0 01-1.108.197h-.596v1.913h-1.04v-5.489h1.709c.642 0 1.162.144 1.56.432.399.288.598.73.598 1.328 0 .404-.103.735-.309 1.01-.162.274-.457.477-.814.609zm-.215-2.285c-.223-.148-.494-.222-.852-.222h-.637v1.84h.653c.321 0 .575-.073.762-.221.187-.148.291-.37.313-.666 0-.34-.093-.544-.239-.73zm.896 8.791v21.633h-3.768l-.976-2.32a17.344 17.344 0 01-4.256 2.237c-1.474.529-2.822.797-3.994.797-2.76 0-4.631-.773-5.76-2.32-1.093-1.546-1.64-3.702-1.64-6.467v-13.56h5.764v13.292c0 1.338.273 2.38.82 3.123.546.744 1.307 1.115 2.283 1.115 1.005 0 1.95-.23 2.837-.679.887-.473 1.862-1.09 2.927-1.864V23.653h5.763zm-9.174-4.275l-.61-.565a2.132 2.132 0 01-.718.396 2.773 2.773 0 01-.911.137 2.73 2.73 0 01-1.074-.222 1.75 1.75 0 01-.779-.63c-.187-.277-.281-.614-.281-1.012 0-.28.07-.557.209-.832.15-.274.326-.514.561-.718-.104-.204-.224-.471-.224-.751 0-.248.08-.537.212-.77.142-.235.341-.422.598-.562.257-.122.558-.21.883-.21.251 0 .508.038.77.113.262.076.503.206.722.299l-.353.84a5.023 5.023 0 00-.519-.25 2.202 2.202 0 00-.612-.09.618.618 0 00-.458.17.572.572 0 00-.168.42c0 .156.052.31.156.497.105.12.272.3.502.504l1.284 1.17c.133-.328.211-.718.232-1.17l.939.384a4.593 4.593 0 01-.369 1.537l.634.532-.626.783zm-2.945-2.712c-.214.248-.277.517-.328.808 0 .306.098.538.296.694.198.156.444.234.738.234.337 0 .632-.056.883-.275l-1.589-1.46zm-10.201-1.081v3.672h-1.035v-5.489h1.035l2.527 3.665v-3.665h1.043v5.49h-1.043l-2.527-3.673zm-7.34 27.382c-1.803 1.903-3.695 2.854-5.675 2.854-2.571 0-4.507-.631-5.807-1.895-1.301-1.264-1.951-2.966-1.951-5.107 0-2.2.739-3.903 2.217-5.107 1.477-1.204 3.458-1.807 5.941-1.807h4.211c-.029-1.073-.347-1.955-.953-2.565-.606-.609-1.441-.896-2.505-.896-.975 0-2.054.124-3.236.406-1.183.326-2.182.617-3.015 1.003l-1.552-4.817c.802-.485 1.995-.959 3.68-1.36 1.685-.401 3.03-.602 4.035-.602 1.758 0 3.281.342 4.699 1.06 1.419.65 2.554 1.601 3.392 2.82.842 1.22 1.263 2.587 1.263 4.104v14.228h-3.722l-1.022-2.32zm-1.019-7.157h-4.345c-.946 0-1.707.273-2.284.868-.563.595-.864 1.309-.864 2.14 0 .655.259 1.22.776 1.696s1.175.713 1.973.713c1.714 0 3.326-.713 4.744-2.114V35.81zm1.7-22.042h3.257l.16.824h-2.382v1.477h1.781l.216.838h-1.997v1.535h2.615l.169.815h-3.819v-5.489zm-3.595 5.49h-1.051v-4.666h-1.661v-.824h4.413l.169.824h-1.87v4.665zm-5.367-1.292h-2.07l-.482 1.291h-1.043l2.126-5.489h.917l2.084 5.425-1.013.178-.519-1.405zm-1.051-2.76l-.715 1.933h1.445l-.73-1.934zm-4.774 4.051l-1.156-2.04h-.979v2.04h-1.035v-5.489h1.709c.632 0 1.149.144 1.553.432.404.288.606.707.606 1.256 0 .328-.053.616-.253.863a1.807 1.807 0 01-.678.588l1.34 2.35h-1.107zm-1.493-4.617h-.642v1.68h.658c.327 0 .587-.04.783-.199.195-.131.292-.337.292-.617 0-.576-.363-.864-1.091-.864zm-7.721 17.354c0-1.337-.274-2.366-.779-3.122-.588-.743-1.349-1.115-2.324-1.115a6.067 6.067 0 00-2.838.692c-.886.46-1.862 1.077-2.925 1.85v14.987h-5.72v-31l5.72-.49v11.508a17.191 17.191 0 013.768-1.74c1.3-.416 2.468-.624 3.502-.624 2.719 0 4.626.773 5.746 2.32 1.067 1.586 1.614 3.702 1.614 6.486v13.54h-5.764V31.994zm.42-18.226h3.258l.16.824h-2.383v1.477h1.781l.169.838h-1.95v1.535h2.628l.156.815h-3.819v-5.489zm-2.367 5.058c-.347.287-.815.431-1.39.431h-2.252v-5.489h2.118c.561 0 1 .124 1.316.372.315.247.501.635.501 1.162 0 .345-.223.67-.614.977.562.296.843.75.843 1.364 0 .5-.174.895-.522 1.183zm-1.047-3.995c-.127-.14-.352-.19-.63-.19h-.93v1.363h.77c.305 0 .548-.058.73-.173a.569.569 0 00.273-.513c0-.247-.071-.422-.213-.487zm.257 2.23c-.153-.14-.36-.21-.622-.21h-1.195v1.543h1.123c.283 0 .508-.065.706-.178a.801.801 0 00.217-.565c0-.253-.077-.45-.229-.59zm-22.755 14.933c0-1.337-.274-2.366-.782-3.122-.585-.743-1.347-1.115-2.321-1.115a6.061 6.061 0 00-2.838.692c-.887.46-1.863 1.077-2.926 1.85v14.987h-5.764V23.653h3.769l.975 2.32a17.14 17.14 0 014.256-2.23c1.508-.535 2.853-.803 4.035-.803 2.719 0 4.625.773 5.719 2.32 1.093 1.586 1.64 3.702 1.64 6.486v13.54h-5.763V31.994zm-30.747 7.673c1.01.802 2.505 1.22 4.545 1.22 1.182 0 2.246-.171 3.192-.507.976-.327 1.977-.803 3.059-1.428l1.685 4.23a13.263 13.263 0 01-3.547 1.948c-1.271.46-2.742.691-4.522.691-4.08 0-7.175-1.003-9.289-3.01-2.113-2.007-3.127-4.78-3.127-8.319 0-2.29.393-4.297 1.265-6.021.873-1.724 2.121-3.055 3.747-3.954 1.626-.975 3.547-1.444 5.763-1.444 2.158 0 4.007.506 5.453 1.517 1.49 1.012 2.572 2.372 3.281 4.082.71 1.71 1.064 3.62 1.064 5.731v1.784H90.841c.295 1.517.938 2.677 1.928 3.48zm7.116-7.36c-.295-1.428-.82-2.498-1.574-3.211-.754-.714-1.722-1.071-2.904-1.071s-2.172.364-2.97 1.093c-.798.728-1.316 1.79-1.552 3.189h9zm-24.871-18.02l5.72-.491v31.49h-5.72v-31zm-11.482 0l5.72-.491v31.49h-5.72v-31zm-9.421 30.13c-1.73.936-3.747 1.404-6.052 1.404-2.306 0-4.323-.452-6.052-1.382a9.754 9.754 0 01-4.012-3.935c-.946-1.722-1.419-3.722-1.419-6.012 0-2.29.473-4.297 1.419-6.021.945-1.724 2.283-3.055 4.012-3.954 1.73-.975 3.746-1.444 6.052-1.444 2.305 0 4.322.462 6.052 1.384a9.803 9.803 0 014.012 3.947c.946 1.71 1.419 3.71 1.419 5.999 0 2.29-.473 4.297-1.419 6.022a9.819 9.819 0 01-4.012 3.992zm-2.062-14.608c-1.035-1.189-2.365-1.784-3.99-1.784-1.596 0-2.914.61-3.968 1.829-1.05 1.219-1.574 2.765-1.574 4.638 0 1.874.517 3.447 1.593 4.626.993 1.18 2.35 1.77 3.949 1.77 1.596 0 2.919-.627 3.999-1.846 1.018-1.22 1.543-2.766 1.543-4.639 0-1.873-.518-3.404-1.552-4.594zm-24.605 2.185c0-1.397-.215-2.452-.627-3.166-.43-.714-1.117-1.07-2.034-1.07-.844 0-1.7.208-2.439.624-.739.416-1.684 1.04-2.836 1.873v15.031h-5.764V31.994c0-1.397-.215-2.452-.643-3.166-.429-.714-1.101-1.07-2.017-1.07-.887 0-1.7.208-2.439.624-.739.416-1.7 1.055-2.882 1.918v14.986H0V23.653h3.768l.976 2.32a18.007 18.007 0 014.123-2.23c1.418-.535 2.708-.803 3.724-.803 2.926 0 4.915.982 5.941 2.968 1.33-.939 2.689-1.667 4.122-2.158 1.346-.55 2.572-.81 3.637-.81 2.453 0 4.219.662 5.313 1.985 1.104 1.323 1.603 3.293 1.603 5.91v14.451h-5.764V31.994z" fill="#06255B"/></svg>